<svg xmlns="http://www.w3.org/2000/svg" version="1.1" width="139px" height="139px" style="shape-rendering:geometricPrecision; text-rendering:geometricPrecision; image-rendering:optimizeQuality; fill-rule:evenodd; clip-rule:evenodd" xmlns:xlink="http://www.w3.org/1999/xlink">
<g><path style="opacity:1" fill="#fefffe" d="M 65.5,19.5 C 106.398,22.8941 130.231,44.8941 137,85.5C 138.229,96.4532 137.063,107.12 133.5,117.5C 131.693,116.605 130.36,115.272 129.5,113.5C 136.741,80.3801 126.741,53.8801 99.5,34C 68.0327,18.7594 41.1994,24.5928 19,51.5C 6.04148,70.7511 2.54148,91.5845 8.5,114C 7.5,115 6.5,116 5.5,117C 4.66828,117.688 4.00161,117.521 3.5,116.5C -5.48231,79.9314 5.18436,50.7647 35.5,29C 45.0232,23.879 55.0232,20.7123 65.5,19.5 Z"/></g>
<g><path style="opacity:1" fill="#fefffe" d="M 63.5,29.5 C 96.7692,30.5585 117.602,47.2252 126,79.5C 128.151,90.5756 127.817,101.576 125,112.5C 108.879,102.43 91.379,96.5972 72.5,95C 75.8333,93.6667 79.1667,92.3333 82.5,91C 88.6859,90.4298 94.6859,89.0965 100.5,87C 103.814,83.6823 107.648,81.1823 112,79.5C 113.301,77.6354 113.635,75.6354 113,73.5C 103.591,65.8795 94.0909,58.3795 84.5,51C 74.4517,45.8908 63.9517,42.0575 53,39.5C 50.3002,39.7305 47.9668,40.7305 46,42.5C 42.5061,53.6779 36.1727,63.0113 27,70.5C 19.7162,79.9018 19.7162,89.2352 27,98.5C 28.3189,100.487 30.1523,101.654 32.5,102C 25.8878,104.639 19.5545,107.806 13.5,111.5C 5.80221,83.4212 13.1355,59.9212 35.5,41C 43.9973,34.8959 53.3307,31.0626 63.5,29.5 Z"/></g>
<g><path style="opacity:1" fill="#fefffe" d="M 64.5,96.5 C 64.8966,95.475 65.5632,95.3083 66.5,96C 65.9056,96.4643 65.2389,96.631 64.5,96.5 Z"/></g>
</svg>
