<svg version="1.0" xmlns="http://www.w3.org/2000/svg"
 width="139.000000pt" height="139.000000pt" viewBox="0 0 139.000000 139.000000"
 preserveAspectRatio="xMidYMid meet">

<g transform="translate(0.000000,139.000000) scale(0.100000,-0.100000)"
fill="#000000" stroke="none">
<path d="M602 1179 c-255 -38 -467 -225 -558 -494 -33 -96 -44 -276 -25 -384
16 -88 24 -101 49 -78 17 16 18 21 4 85 -17 81 -11 239 13 327 56 211 233 406
422 466 93 29 228 36 317 15 143 -34 294 -142 384 -276 102 -152 142 -391 97
-573 -6 -21 -3 -32 11 -42 28 -21 29 -20 43 38 33 143 23 302 -28 449 -40 111
-85 182 -176 273 -151 152 -354 223 -553 194z"/>
<path d="M582 1075 c-223 -49 -402 -233 -458 -473 -17 -73 -16 -304 1 -321 6
-6 47 9 107 38 86 41 95 48 76 56 -12 6 -37 32 -55 59 -26 38 -33 58 -33 97 0
66 26 114 111 205 74 81 95 113 119 184 29 85 81 87 269 12 100 -41 136 -62
256 -153 77 -58 146 -113 154 -122 23 -29 5 -65 -44 -88 -25 -12 -45 -24 -45
-28 0 -17 -64 -42 -141 -55 -89 -16 -184 -51 -159 -60 8 -2 43 -7 77 -10 105
-9 229 -46 338 -100 l104 -51 8 45 c5 25 8 95 7 155 -1 123 -25 214 -86 323
-51 91 -164 196 -261 242 -121 58 -224 71 -345 45z"/>
</g>
</svg>
